<!-- icon666.com - MILLIONS vector ICONS FREE --><svg id="Capa_1" enable-background="new 0 0 512 512" viewBox="0 0 512 512" xmlns="http://www.w3.org/2000/svg"><path d="m372.606 372.394-21.212 21.212 40.606 40.607 70.606-70.607-21.212-21.212-49.394 49.393z"></path><path d="m377 24c-42.076 0-78.91 18.678-106.52 54.015-5.704 7.3-10.448 14.595-14.332 21.34-3.807-6.724-8.463-13.992-14.069-21.263-27.282-35.387-63.964-54.092-106.079-54.092-78.28 0-136 60.545-136 136.121 0 84.329 72.602 141.657 182.497 228.435 57.871 45.698 62.577 49.994 73.503 58.771 9.89-7.905 11.095-9.425 47.953-38.041.391-.304.768-.597 1.157-.899 11.383 45.672 52.744 79.613 101.89 79.613 57.897 0 105-47.103 105-105 0-42.725-25.653-79.567-62.363-95.945 33.18-33.898 62.363-74.981 62.363-126.934 0-75.272-56.411-136.121-135-136.121zm105 359c0 41.355-33.645 75-75 75s-75-33.645-75-75 33.645-75 75-75 75 33.645 75 75zm-75-105c-54.306 0-99.113 41.44-104.464 94.358-5.477 4.298-36.515 28.398-46.507 36.366-19.148-15.45-37.303-29.785-54.94-43.713-103.026-81.353-171.089-135.097-171.089-204.89 0-60.499 45.57-106.121 106-106.121 32.633 0 60.141 14.025 81.759 41.685 16.931 21.663 23.811 43.917 23.868 44.105l.001.004c14.789.102 13.894.096 28.683.199l.01-.033c.07-.222 7.187-22.5 24.364-44.193 21.946-27.715 49.64-41.767 82.315-41.767 59.859 0 105 45.622 105 106.121 0 38.931-19.305 73.507-66.326 118.24-2.861-.235-5.753-.361-8.674-.361z"></path></svg>